# xmcd
#
# Track frame offsets:
#	182
#	9155
#	23700
#	37645
#	52042
#	67647
#	80687
#	90065
#	101772
#	112032
#	125222
#	137290
#	146962
#	163690
#	176385
#	189740
#
# Disc length: 2710 seconds
# Revision: 2
# Processed by: cddbd v1.5.2PL0 Copyright (c) Steve Scherf et al.
# Submitted via: dBpowerAMP V12.0
#
DISCID=c70a9410
DTITLE=Various Artist - The Best of Irish Showbands
DYEAR=1900
DGENRE=Country
TTITLE0=Brian Coll and the Plattermen - Ireland Swings
TTITLE1=Merv Allen and the JJ Showband - The Pub With No Beer
TTITLE2=Dickie Rock - If
TTITLE3=Pat McGeegan - Chance Of A Lifetime
TTITLE4=Jimmy Johnston Showband - The Drunkard's Song
TTITLE5=Big Tom and the Mainliners - Gentle Mother
TTITLE6=The Witnesses Showband - (Remember Me) I'm The One
TTITLE7=Terry Mahon and Jim Farley - Johnny
TTITLE8=Gene and the Gents - The Way You Wrinkle Your Nose
TTITLE9=Frankie McBride and the Polkadots - Cottage In Old Donegal
TTITLE10=Declan Ryan and Regal - I Need You
TTITLE11=Dickie Rock - The Most Beautiful Girl In The World
TTITLE12=Tony Morelli and the Witnesses - Nobody's Child
TTITLE13=The Mad Lads - Answer Your Phone
TTITLE14=Cathie Harrop - Harbour Lights
TTITLE15=D.J. Curtin and Kerry Blues - My Elusive Dreams
EXTD=
EXTT0=
EXTT1=
EXTT2=
EXTT3=
EXTT4=
EXTT5=
EXTT6=
EXTT7=
EXTT8=
EXTT9=
EXTT10=
EXTT11=
EXTT12=
EXTT13=
EXTT14=
EXTT15=
PLAYORDER=
